<?xml version="1.0" encoding="utf-8"?>
<!-- Generator: Adobe Illustrator 24.0.2, SVG Export Plug-In . SVG Version: 6.00 Build 0)  -->
<svg version="1.1" id="Layer_1" xmlns="http://www.w3.org/2000/svg" xmlns:xlink="http://www.w3.org/1999/xlink" x="0px" y="0px"
	 viewBox="0 0 512 512" style="enable-background:new 0 0 512 512;" xml:space="preserve">
<style type="text/css">
	.st0{fill:#EFC90A;}
</style>
<path class="st0" d="M486.4,127.6L458,99.3L481.3,76c12.5-12.5,12.5-32.8,0-45.3c-12.5-12.5-32.8-12.5-45.3,0L412.7,54l-28.4-28.4
	c-34.3-34.3-89.8-34.3-124.1,0c-34.3,34.3-34.3,89.8,0,124.1l0,0l28.4,28.4L178,288.7l-28.4-28.4c-34.3-34.3-89.8-34.3-124.1,0
	s-34.3,89.8,0,124.1L54,412.7L30.7,436c-12.5,12.5-12.5,32.8,0,45.3s32.8,12.5,45.3,0l0,0L99.3,458l28.4,28.4
	c34.3,34.3,89.8,34.3,124.1,0c34.3-34.3,34.3-89.8,0-124.1l0,0L223.4,334l110.7-110.7l28.2,28.4c34.3,34.3,89.8,34.3,124.1,0
	S520.7,161.9,486.4,127.6L486.4,127.6L486.4,127.6z M206.4,441c-9.4,8.9-24.1,8.9-33.5,0l-102-101.8c-9.3-9.3-9.3-24.3,0-33.6
	s24.3-9.3,33.6,0l101.9,101.9C215.6,416.7,215.6,431.7,206.4,441L206.4,441z M441.1,206.4c-9.4,8.9-24.1,8.9-33.5,0l-102-101.8
	c-9.3-9.3-9.3-24.3,0-33.6s24.3-9.3,33.6,0l101.9,101.9C450.3,182.1,450.3,197,441.1,206.4L441.1,206.4z"/>
</svg>
